# xmcd CD database file
#
# Track frame offsets:
#	150
#	15184
#	28250
#	49266
#	70695
#	92504
#	107431
#	126683
#	141933
#	165331
#	181039
#	202657
#	220138
#
# Disc length: 3236 seconds
#
# Revision: 0
# Processed by: cddbd v1.5.2PL0 Copyright (c) Steve Scherf et al.
# Submitted via: CDex 1.51
#
DISCID=a50ca20d
DTITLE=Michael McCloud - Live As I Can Be - Disc 1
DYEAR=2007
DGENRE=Country
TTITLE0=Fishin' Fool
TTITLE1=Conch Republic Sond
TTITLE2=Peace and Quiet
TTITLE3=Closin' The Bars
TTITLE4=Moments Of Weakness
TTITLE5=Billy's Bayou Barroom and Backyard Barbecue
TTITLE6=Today's The Day
TTITLE7=One Good Christian Man
TTITLE8=Just Another Song
TTITLE9=Hurricane Blow
TTITLE10=Waitin' Tables
TTITLE11=Just Came Down For The Weekend
TTITLE12=Chasin' The Wind
EXTD=YEAR: 2007
EXTT0=
EXTT1=
EXTT2=
EXTT3=
EXTT4=
EXTT5=
EXTT6=
EXTT7=
EXTT8=
EXTT9=
EXTT10=
EXTT11=
EXTT12=
PLAYORDER=
